<?xml version="1.0" standalone="no"?>
<!DOCTYPE svg PUBLIC "-//W3C//DTD SVG 20010904//EN"
 "http://www.w3.org/TR/2001/REC-SVG-20010904/DTD/svg10.dtd">
<svg version="1.0" xmlns="http://www.w3.org/2000/svg"
 width="242.000000pt" height="215.000000pt" viewBox="0 0 242.000000 215.000000"
 preserveAspectRatio="xMidYMid meet">
<metadata>
Created by potrace 1.15, written by Peter Selinger 2001-2017
</metadata>
<g transform="translate(0.000000,215.000000) scale(0.100000,-0.100000)"
fill="#000000" stroke="none">
<path d="M347 2019 c-57 -14 -92 -34 -130 -80 -67 -78 -67 -78 -67 -614 0
-551 1 -556 74 -629 79 -80 30 -76 997 -76 l857 0 53 28 c60 31 111 96 129
163 7 25 10 212 8 536 -3 491 -3 499 -25 539 -25 48 -78 97 -131 122 -34 16
-100 17 -882 19 -476 1 -862 -3 -883 -8z m1718 -194 l25 -24 0 -470 c0 -336
-3 -477 -12 -496 -7 -16 -24 -29 -49 -35 -25 -7 -320 -10 -844 -8 l-807 3 -24
28 -24 28 0 470 c0 314 4 477 11 490 6 11 20 24 32 29 12 5 392 9 845 9 l823
1 24 -25z"/>
<path d="M443 327 c-104 -104 -113 -116 -113 -150 0 -27 7 -45 25 -62 l24 -25
831 0 831 0 24 25 c18 17 25 35 25 62 0 34 -9 46 -113 150 l-113 113 -654 0
-654 0 -113 -113z"/>
</g>
</svg>
